<svg width="46" height="12" viewBox="0 0 46 12" fill="none" xmlns="http://www.w3.org/2000/svg">
<path d="M3.18859 3.91835L2.72736 3.52476C2.49981 3.35871 2.45062 3.03892 2.61666 2.81138C2.78271 2.58383 3.10865 2.53463 3.33619 2.70683C3.35464 2.71298 3.36694 2.73143 3.38539 2.74373L3.84663 3.13117L4.9659 1.8151C5.16269 1.61216 5.48863 1.60601 5.69158 1.8028C5.87607 1.98115 5.90067 2.27019 5.74692 2.47929L4.62766 3.79535L6.12206 5.05606L9.25848 1.33542C6.6817 -0.22664 3.31774 0.597437 1.75568 3.17422C1.24525 4.02289 0.968506 5.00072 0.968506 5.99699C0.968506 6.17533 0.974656 6.34753 0.993105 6.51972L3.18859 3.91835Z" fill="white"/>
<path d="M9.35996 6.53374L8.65888 5.94336L6.49414 8.51399L7.19522 9.10437C7.34282 9.22737 7.52731 9.30732 7.72411 9.32577C7.7979 9.33807 7.8717 9.34422 7.93935 9.34422C8.45594 9.31962 8.93562 9.05517 9.23697 8.63698C9.55061 8.30489 9.75355 7.89286 9.81505 7.44392C9.8212 7.08723 9.649 6.74284 9.35996 6.53374Z" fill="white"/>
<path d="M10.0488 1.90918L5.09199 7.79457C4.93825 8.02211 4.63691 8.08361 4.40936 7.92986C4.18182 7.78227 4.12032 7.47478 4.27407 7.24723C4.29252 7.21648 4.31712 7.19188 4.34171 7.16728L5.46713 5.83277L3.97272 4.57206L1.27295 7.78227C2.25692 10.6358 5.36874 12.1486 8.21611 11.1647C11.0696 10.1807 12.5825 7.06889 11.5985 4.22152C11.2849 3.32979 10.756 2.53646 10.0488 1.90918ZM9.91961 9.20288C9.50757 9.72561 8.92949 10.0885 8.28376 10.2361C8.13616 10.2668 7.98241 10.2852 7.82867 10.2852C7.37358 10.2852 6.93694 10.1192 6.5987 9.82401L5.63318 9.01223C5.52248 8.93229 5.44868 8.80929 5.43638 8.66784C5.43638 8.5264 5.48558 8.39725 5.58398 8.2927L8.28991 5.07634C8.38215 4.95335 8.5236 4.8734 8.67735 4.86725C8.80034 4.8734 8.92334 4.9226 9.00944 5.00254L9.97496 5.81432C10.4669 6.17716 10.7683 6.7491 10.7744 7.36408C10.7006 8.05901 10.3993 8.70474 9.91961 9.20288Z" fill="white"/>
<path d="M14.8763 9.72406L15.7496 9.72406L16.9427 7.01813L19.6855 7.01813L20.8786 9.72406L21.7457 9.72406L18.3141 1.91992L14.8763 9.72406ZM18.3141 3.90017L19.3657 6.2863L17.2686 6.2863L18.3141 3.90017Z" fill="white"/>
<path d="M24.6053 8.42626L23.0863 5.05615L22.2745 5.05615L24.6053 10.0683L26.9361 5.05615L26.1243 5.05615L24.6053 8.42626Z" fill="white"/>
<path d="M29.0577 5.05615L28.3381 5.05615L28.3381 9.72387L29.0577 9.72387L29.0577 5.05615Z" fill="white"/>
<path d="M28.3074 3.68487C28.086 3.90011 28.0798 4.25066 28.2889 4.47205C28.5042 4.69344 28.8547 4.69959 29.0761 4.4905C29.1868 4.38595 29.2483 4.23221 29.2483 4.07846C29.2483 3.93086 29.193 3.78942 29.0884 3.68487C28.867 3.46963 28.5226 3.46963 28.3074 3.68487Z" fill="white"/>
<path d="M32.7846 8.42626L31.2656 5.05615L30.4476 5.05615L32.7784 10.0683L35.1092 5.05615L34.2913 5.05615L32.7846 8.42626Z" fill="white"/>
<path d="M36.4867 3.6849C36.253 3.88785 36.2345 4.23839 36.4375 4.47208C36.6404 4.70577 36.991 4.72422 37.2247 4.52128C37.4584 4.31833 37.4768 3.96779 37.2739 3.7341C37.2677 3.72795 37.2616 3.7218 37.2554 3.7095C37.0463 3.50041 36.7081 3.48811 36.4867 3.6849Z" fill="white"/>
<path d="M37.237 5.05615L36.5175 5.05615L36.5175 9.72387L37.237 9.72387L37.237 5.05615Z" fill="white"/>
<path d="M44.7521 4.63808C44.5738 4.2076 44.3155 3.81401 43.9895 3.48192C43.6697 3.14983 43.2823 2.88538 42.8641 2.70089C42.4336 2.51024 41.9601 2.41185 41.4927 2.418L39.205 2.418L39.205 9.70555L41.4927 9.70555C41.9662 9.7117 42.4336 9.6133 42.8641 9.42265C43.2884 9.23816 43.6697 8.97372 43.9895 8.64163C45.0165 7.57155 45.3117 6.00335 44.7521 4.63808ZM44.1187 7.19026C43.9772 7.5408 43.7681 7.85445 43.5098 8.12504C43.2454 8.38948 42.9379 8.60473 42.5997 8.75847C42.2491 8.91222 41.874 8.99217 41.4927 8.99217L39.9245 8.99217L39.9245 3.11908L41.4927 3.11908C41.874 3.11293 42.2491 3.19287 42.5997 3.34662C42.9441 3.49422 43.2515 3.70331 43.5098 3.96775C44.3339 4.82873 44.5738 6.08944 44.1187 7.19026Z" fill="white"/>
</svg>
